<svg xmlns="http://www.w3.org/2000/svg" viewBox="0 0 512 512">
  <defs>
    <radialGradient id="bg" cx="35%" cy="30%" r="80%">
      <stop offset="0%" stop-color="#1c7a44"/>
      <stop offset="100%" stop-color="#0B3D26"/>
    </radialGradient>
  </defs>
  <rect width="512" height="512" rx="96" fill="url(#bg)"/>

  <!-- ball seam arcs, suggesting a football without drawing a literal ball -->
  <g fill="none" stroke="#F7F5F0" stroke-width="10" stroke-linecap="round" opacity="0.35">
    <circle cx="256" cy="256" r="176"/>
    <path d="M 256 80 A 176 176 0 0 1 256 432" />
    <path d="M 130 150 A 176 176 0 0 0 130 362" />
  </g>

  <!-- the S monogram, drawn as a bold ribbon so it reads at 48px too -->
  <path d="M 336 158
           C 336 122, 300 104, 254 104
           C 200 104, 164 130, 164 172
           C 164 218, 206 232, 248 244
           C 296 258, 348 274, 348 340
           C 348 388, 306 416, 250 416
           C 196 416, 158 394, 152 352"
        fill="none" stroke="#C2542D" stroke-width="46" stroke-linecap="round"/>
  <path d="M 336 158
           C 336 122, 300 104, 254 104
           C 200 104, 164 130, 164 172
           C 164 218, 206 232, 248 244
           C 296 258, 348 274, 348 340
           C 348 388, 306 416, 250 416
           C 196 416, 158 394, 152 352"
        fill="none" stroke="#F7F5F0" stroke-width="18" stroke-linecap="round"/>
</svg>
