<svg xmlns="http://www.w3.org/2000/svg" viewBox="0 0 640 160">
  <defs>
    <radialGradient id="bg2" cx="35%" cy="30%" r="80%">
      <stop offset="0%" stop-color="#1c7a44"/>
      <stop offset="100%" stop-color="#0B3D26"/>
    </radialGradient>
  </defs>

  <rect x="8" y="8" width="144" height="144" rx="28" fill="url(#bg2)"/>
  <g fill="none" stroke="#F7F5F0" stroke-width="4" opacity="0.35">
    <circle cx="80" cy="80" r="52"/>
  </g>
  <path d="M 108 46
           C 108 34, 96 28, 80 28
           C 62 28, 50 37, 50 51
           C 50 67, 64 71, 78 75
           C 94 80, 110 86, 110 108
           C 110 124, 96 133, 78 133
           C 61 133, 48 126, 46 111"
        fill="none" stroke="#C2542D" stroke-width="14" stroke-linecap="round" transform="translate(0,0) scale(1)"/>
  <path d="M 108 46
           C 108 34, 96 28, 80 28
           C 62 28, 50 37, 50 51
           C 50 67, 64 71, 78 75
           C 94 80, 110 86, 110 108
           C 110 124, 96 133, 78 133
           C 61 133, 48 126, 46 111"
        fill="none" stroke="#F7F5F0" stroke-width="6" stroke-linecap="round"/>

  <text x="176" y="103" font-family="Arial, Helvetica, sans-serif" font-weight="700"
        font-size="72" letter-spacing="2" fill="#0B3D26">SHA<tspan fill="#C2542D">BET</tspan></text>
  <text x="178" y="128" font-family="Arial, Helvetica, sans-serif" font-weight="600"
        font-size="18" letter-spacing="4" fill="#1c7a44">RETAIL TICKET BOOKING</text>
</svg>
